<?xml version="1.0" standalone="no"?>
<!DOCTYPE svg PUBLIC "-//W3C//DTD SVG 20010904//EN"
 "http://www.w3.org/TR/2001/REC-SVG-20010904/DTD/svg10.dtd">
<svg version="1.0" xmlns="http://www.w3.org/2000/svg"
 width="260.000000pt" height="260.000000pt" viewBox="0 0 260.000000 260.000000"
 preserveAspectRatio="xMidYMid meet">
<metadata>
Created by potrace 1.14, written by Peter Selinger 2001-2017
</metadata>
<g transform="translate(0.000000,260.000000) scale(0.100000,-0.100000)"
fill="#000000" stroke="none">
<path d="M50 1906 c0 -13 12 -16 65 -16 l65 0 -2 -657 -3 -658 -62 -3 c-35 -2
-63 -7 -63 -12 0 -6 122 -10 315 -10 193 0 315 4 315 10 0 5 -28 10 -62 12
l-63 3 0 335 0 335 57 3 c87 5 132 -11 160 -55 21 -35 23 -53 29 -233 10 -264
23 -319 96 -379 43 -35 36 -42 -9 -9 -31 21 -78 107 -78 142 0 11 -3 16 -6 13
-4 -4 -1 -28 7 -54 16 -60 83 -130 125 -131 16 -1 79 -4 139 -8 205 -11 262
27 299 201 11 53 11 65 0 65 -7 0 -18 -23 -25 -57 -13 -59 -52 -113 -82 -113
-8 0 -25 8 -38 19 -22 18 -23 26 -30 207 -4 104 -12 206 -19 227 -24 78 -116
148 -217 163 -24 3 -43 9 -43 13 0 4 30 13 68 20 87 15 164 53 201 98 43 52
65 144 59 241 -11 160 -77 236 -240 279 -53 13 -137 17 -510 20 -404 4 -448 3
-448 -11z m700 -38 c57 -30 77 -59 91 -133 13 -69 6 -260 -11 -318 -14 -46
-77 -120 -97 -113 -9 4 -11 1 -7 -6 5 -7 0 -9 -14 -6 -12 4 -20 2 -16 -3 3 -5
-28 -9 -70 -9 l-76 0 0 305 0 305 78 0 c61 0 87 -5 122 -22z"/>
<path d="M708 1865 c91 -28 112 -71 123 -245 l7 -125 -2 130 c-2 112 -6 136
-25 173 -23 44 -81 82 -126 81 -11 0 -1 -6 23 -14z"/>
<path d="M822 1460 c0 -14 2 -19 5 -12 2 6 2 18 0 25 -3 6 -5 1 -5 -13z"/>
<path d="M800 1392 c0 -6 -12 -25 -27 -44 -22 -27 -23 -29 -4 -13 27 23 45 54
37 63 -3 3 -6 0 -6 -6z"/>
<path d="M1460 1905 c0 -10 15 -15 58 -17 l57 -3 0 -650 0 -650 -57 -3 c-43
-2 -58 -7 -58 -17 0 -13 53 -15 370 -15 322 0 370 2 370 15 0 13 -21 15 -125
15 l-125 0 0 305 0 305 77 0 c135 0 196 -51 245 -202 12 -38 28 -68 35 -68 10
0 13 57 13 285 0 226 -3 285 -13 285 -7 0 -18 -20 -25 -46 -7 -25 -16 -43 -20
-40 -5 3 -8 -5 -8 -17 1 -12 -4 -21 -11 -20 -7 2 -10 -3 -7 -11 3 -8 0 -17 -7
-22 -8 -5 -10 -3 -4 7 8 12 6 12 -8 0 -18 -15 -23 -26 -7 -16 18 11 11 -11 -9
-29 -11 -10 -24 -15 -30 -12 -5 4 -13 1 -17 -5 -5 -8 -2 -10 7 -5 8 4 5 0 -6
-9 -11 -9 -28 -14 -38 -11 -9 2 -15 0 -11 -5 3 -5 -30 -9 -76 -9 l-80 0 2 323
3 322 83 -1 c210 -3 317 -79 405 -289 44 -105 61 -101 53 13 -3 48 -8 138 -12
200 l-6 112 -509 0 c-438 0 -509 -2 -509 -15z"/>
<path d="M1441 1894 c0 -11 3 -14 6 -6 3 7 2 16 -1 19 -3 4 -6 -2 -5 -13z"/>
<path d="M158 1458 c1 -233 3 -526 5 -653 1 -126 3 64 5 423 1 358 -1 652 -5
652 -5 0 -7 -190 -5 -422z"/>
<path d="M1549 1867 c8 -10 12 -200 14 -648 l2 -634 3 648 c2 591 1 647 -14
647 -13 0 -14 -3 -5 -13z"/>
<path d="M2018 1873 c12 -2 30 -2 40 0 9 3 -1 5 -23 4 -22 0 -30 -2 -17 -4z"/>
<path d="M2118 1863 c6 -2 18 -2 25 0 6 3 1 5 -13 5 -14 0 -19 -2 -12 -5z"/>
<path d="M2203 1840 c99 -38 167 -119 223 -261 15 -38 29 -67 32 -64 7 6 -45
130 -76 180 -38 63 -93 115 -147 141 -27 13 -57 24 -65 23 -8 0 7 -8 33 -19z"/>
<path d="M2271 1464 c0 -11 3 -14 6 -6 3 7 2 16 -1 19 -3 4 -6 -2 -5 -13z"/>
<path d="M721 1215 c31 -17 58 -78 60 -133 1 -20 3 -29 6 -18 15 58 -34 167
-75 166 -12 -1 -9 -5 9 -15z"/>
<path d="M2092 1170 c79 -24 123 -75 163 -193 14 -39 23 -58 21 -42 -8 56 -48
146 -79 182 -32 37 -82 64 -114 62 -11 0 -8 -4 9 -9z"/>
<path d="M793 780 c0 -25 2 -35 4 -22 2 12 2 32 0 45 -2 12 -4 2 -4 -23z"/>
<path d="M1331 744 c0 -11 3 -14 6 -6 3 7 2 16 -1 19 -3 4 -6 -2 -5 -13z"/>
<path d="M1301 667 c-13 -21 -12 -21 5 -5 10 10 16 20 13 22 -3 3 -11 -5 -18
-17z"/>
<path d="M31 554 c0 -11 3 -14 6 -6 3 7 2 16 -1 19 -3 4 -6 -2 -5 -13z"/>
<path d="M1441 554 c0 -11 3 -14 6 -6 3 7 2 16 -1 19 -3 4 -6 -2 -5 -13z"/>
<path d="M1028 513 c7 -3 16 -2 19 1 4 3 -2 6 -13 5 -11 0 -14 -3 -6 -6z"/>
</g>
</svg>
